<svg xmlns="http://www.w3.org/2000/svg" xmlns:xlink="http://www.w3.org/1999/xlink" xmlns:inkscape="http://www.inkscape.org/namespaces/inkscape" version="1.1" width="781.137" height="320.645" viewBox="0 0 781.137 320.645">
<defs>
<clipPath id="clip_1">
<path transform="matrix(1,0,0,-1,0,320.645)" d="M0 320.645H781.137V0H0Z"/>
</clipPath>
</defs>
<g inkscape:groupmode="layer" inkscape:label="Layer 2">
</g>
<g inkscape:groupmode="layer" inkscape:label="Layer 1">
<g clip-path="url(#clip_1)">
<path transform="matrix(1,0,0,-1,656.5932,162.09639)" d="M0 0C-.379 .045-.647 .089-.892 .089-7.648 .045-14.382 .267-21.138-.179-25.352-.468-29.544-1.004-33.669-2.007-37.46-2.921-41.117-4.237-44.417-6.377-47.115-8.139-49.322-10.324-50.772-13.222-52.444-16.545-52.934-20.045-52.555-23.702-52.087-28.429-49.813-31.997-45.799-34.494-42.611-36.479-39.088-37.437-35.409-37.839-27.783-38.664-20.492-37.326-13.579-34.026-8.518-31.618-4.147-28.318-.714-23.814-.245-23.19 .022-22.543 .022-21.696-.022-14.873 0-8.05 0-1.227ZM18.462-50.08H.022C.022-48.363 0-46.669 0-44.974V-39.712C-.312-39.913-.535-40.002-.691-40.158-7.18-45.911-14.694-49.545-23.145-51.284-27.761-52.221-32.443-52.823-37.17-52.667-43.926-52.444-50.504-51.218-56.502-47.828-61.184-45.175-65.131-41.697-67.963-37.036-70.215-33.29-71.397-29.188-71.642-24.817-71.91-20.068-71.441-15.408-69.769-10.926-67.472-4.705-63.303-.022-57.795 3.567-54.138 5.953-50.192 7.692-46.044 9.03-40.314 10.903-34.427 11.996-28.452 12.709-20.804 13.624-13.133 13.824-5.463 13.78H-1.227-.022C-.022 15.162 .022 16.455-.045 17.749-.201 20.714-.401 23.657-.647 26.623-.736 27.716-.959 28.831-1.204 29.901-1.695 32.086-2.787 33.959-4.348 35.564-6.935 38.24-10.145 39.756-13.736 40.537-18.485 41.54-23.301 41.696-28.117 41.451-31.886 41.295-35.565 40.737-39.11 39.422-42.232 38.262-44.952 36.523-47.003 33.847-48.787 31.484-49.724 28.764-50.08 25.843-50.147 25.263-50.214 24.683-50.303 24.036H-68.699C-68.565 25.24-68.476 26.422-68.32 27.56-67.807 31.261-66.759 34.806-65.042 38.128-62.166 43.703-57.773 47.717-52.243 50.526-48.073 52.644-43.636 53.937-39.065 54.762-35.253 55.431-31.417 55.721-27.56 55.922-20.759 56.279-14.025 55.744-7.358 54.316-3.501 53.469 .156 52.109 3.679 50.303 9.543 47.315 13.401 42.655 15.586 36.523 16.923 32.755 17.771 28.875 18.038 24.906 18.306 21.227 18.44 17.503 18.44 13.802 18.484-6.979 18.462-27.761 18.462-48.52Z" fill="#FFFFFF"/>
<path transform="matrix(1,0,0,-1,464.9688,162.0651)" d="M0 0C-.379 .022-.58 .067-.803 .067-7.581 0-14.382 .245-21.16-.223-25.687-.513-30.146-1.115-34.539-2.274-38.441-3.3-42.142-4.75-45.442-7.135-48.296-9.231-50.415-11.885-51.596-15.252-52.399-17.459-52.667-19.778-52.622-22.142-52.533-27.894-49.991-32.198-44.952-35.007-41.986-36.657-38.775-37.482-35.431-37.861-28.586-38.597-21.986-37.638-15.631-34.985-9.655-32.51-4.526-28.942-.602-23.725-.179-23.167 .022-22.61 .022-21.896 0-15.006 0-8.094 0-1.204ZM-.089 13.757C-.089 16.165 0 18.417-.112 20.669-.268 23.211-.558 25.754-.87 28.295-1.472 33.245-4.415 36.478-8.629 38.731-10.926 39.957-13.423 40.537-15.943 40.916-20.447 41.607-24.973 41.696-29.5 41.362-33.157 41.094-36.769 40.425-40.18 38.954-46.334 36.256-49.612 31.528-50.147 24.861-50.169 24.616-50.192 24.349-50.214 24.126-51.061 23.903-66.848 23.814-68.52 24.036-68.788 25.062-68.476 26.066-68.342 27.069-67.941 30.324-67.115 33.468-65.778 36.478-62.767 43.324-57.639 48.029-50.928 51.128-46.646 53.09-42.142 54.25-37.505 54.985-32.733 55.721-27.939 56.1-23.1 56.011-16.389 55.9-9.722 55.253-3.256 53.179-.892 52.421 1.382 51.44 3.59 50.325 9.432 47.404 13.311 42.789 15.541 36.702 16.834 33.178 17.57 29.522 18.016 25.776 18.417 22.23 18.462 18.685 18.462 15.118V-48.564-50.058H.022C-.045-48.943 0-47.828 0-46.691V-43.346-39.712C-.335-39.957-.58-40.113-.781-40.27-7.76-46.468-15.943-50.147-25.107-51.686-28.942-52.332-32.822-52.801-36.724-52.712-42.767-52.533-48.676-51.597-54.205-49.01-58.665-46.914-62.567-44.06-65.689-40.225-69.145-36.033-71.04-31.217-71.53-25.821-71.999-20.826-71.508-15.965-69.836-11.238-67.74-5.307-63.882-.714-58.754 2.876-55.209 5.351-51.307 7.18-47.226 8.584-41.161 10.703-34.874 11.907-28.497 12.665-19.622 13.735-10.725 13.802-1.828 13.757Z" fill="#FFFFFF"/>
<path transform="matrix(1,0,0,-1,301.7356,181.26099)" d="M0 0H18.395C18.484-.981 18.574-1.895 18.663-2.81 19.421-9.209 22.81-13.691 28.719-16.255 31.417-17.437 34.271-18.106 37.192-18.462 41.027-18.953 44.885-19.065 48.742-18.686 52.265-18.351 55.699-17.637 58.865-15.965 62.544-14.003 65.421-11.26 66.87-7.247 67.806-4.661 67.963-2.029 67.405 .646 66.736 3.835 64.886 6.176 61.942 7.514 59.869 8.495 57.706 9.298 55.521 10.034 49.233 12.152 42.811 13.757 36.389 15.385 29.856 17.08 23.39 18.997 17.236 21.851 15.541 22.632 13.869 23.546 12.219 24.482 7.893 26.891 5.106 30.57 3.724 35.297 2.074 40.871 1.828 46.557 3.189 52.221 4.593 58.018 7.938 62.611 12.509 66.379 17.236 70.281 22.699 72.645 28.652 73.916 31.707 74.585 34.784 74.919 37.906 75.075 45.13 75.454 52.265 74.853 59.311 73.247 63.503 72.288 67.45 70.75 71.084 68.409 77.194 64.462 80.784 58.865 82.122 51.775 82.456 49.946 82.59 48.096 82.813 46.289 81.854 46.022 66.915 45.933 64.373 46.156 64.306 46.512 64.217 46.892 64.15 47.271 63.57 52.02 61.206 55.588 56.97 57.862 54.272 59.289 51.373 59.98 48.363 60.359 45.13 60.783 41.852 60.85 38.597 60.582 34.383 60.225 30.347 59.244 26.668 57.059 23.702 55.298 21.695 52.867 21.026 49.433 20.67 47.471 20.714 45.509 21.249 43.591 21.963 41.049 23.546 39.154 25.91 38.061 27.894 37.147 29.923 36.345 31.997 35.654 37.95 33.691 44.038 32.242 50.102 30.748 57.215 28.986 64.194 26.913 70.839 23.814 72.489 23.033 74.072 22.141 75.655 21.249 80.449 18.529 83.504 14.426 84.931 9.142 86.514 3.3 86.67-2.587 85.176-8.451 83.504-15.073 79.647-20.269 74.362-24.483 69.546-28.318 64.038-30.726 58.063-31.997 51.485-33.402 44.862-33.848 38.151-33.223 33.714-32.822 29.321-32.287 25.018-31.128 22.275-30.414 19.644-29.433 17.124-28.184 8.741-23.992 3.412-17.348 1.182-8.295 .602-5.954 .379-3.546 0-1.16-.045-.803 0-.446 0 0" fill="#FFFFFF"/>
<path transform="matrix(1,0,0,-1,124.7806,212.14769)" d="M0 0H-18.351C-18.574 .78-18.663 101.966-18.418 103.639H0V97.284 90.884C.535 90.951 .713 91.353 .981 91.62 4.036 94.876 7.38 97.796 11.149 100.205 15.564 102.992 20.335 104.843 25.486 105.645 29.098 106.203 32.733 106.18 36.367 105.801 39.801 105.445 43.168 104.82 46.423 103.639 54.896 100.539 60.426 94.564 63.414 86.157 64.796 82.255 65.577 78.219 65.867 74.094 66.045 71.508 66.112 68.899 66.134 66.313V1.516 .022H47.605V1.427 66.781C47.605 70.46 47.36 74.117 46.512 77.706 46.267 78.643 46 79.557 45.665 80.471 43.837 85.778 40.113 88.922 34.695 90.149 27.693 91.709 21.071 90.639 14.85 87.116 10.168 84.485 6.199 80.984 2.564 77.105 1.695 76.168 .892 75.209 .067 74.25 .045 73.024 0 71.82 0 70.593V1.583Z" fill="#FFFFFF"/>
<path transform="matrix(1,0,0,-1,291.8422,212.1633)" d="M0 0H-18.373C-18.485 4.259-18.373 8.473-18.44 12.955-18.864 12.531-19.131 12.286-19.377 12.04-21.45 9.811-23.658 7.715-26.066 5.842-32.086 1.159-38.82-1.717-46.468-2.431-48.698-2.653-50.905-2.631-53.135-2.431-56.613-2.118-60.047-1.65-63.392-.602-72.779 2.363-78.866 8.674-82.01 17.927-83.259 21.628-84.017 25.441-84.262 29.343-84.441 31.974-84.53 34.605-84.53 37.237-84.552 58.865-84.552 80.494-84.552 102.122V103.639H-66.023V102.234 37.014C-66.023 33.557-65.845 30.101-65.109 26.712-64.819 25.397-64.44 24.059-63.972 22.766-62.188 17.816-58.642 14.739-53.536 13.579-46.223 11.884-39.244 12.866-32.666 16.5-27.092 19.599-22.677 23.992-18.775 28.986-18.574 29.254-18.485 29.633-18.44 29.99-18.373 30.324-18.418 30.659-18.418 30.993V102.1 103.639H-.134C-.134 103.639-.089 103.594-.067 103.572-.045 103.549 0 103.527 0 103.482 .022 69.256 .022 35.007 .045 .78 .045 .557 .022 .334 0 0" fill="#FFFFFF"/>
<path transform="matrix(1,0,0,-1,489.7102,108.48219)" d="M0 0H20.023C29.143-26.891 38.262-53.804 47.382-80.739 47.449-80.739 47.516-80.739 47.583-80.762 56.68-53.871 65.8-26.958 74.919-.022H94.742C94.742-.022 94.786-.067 94.786-.089 94.809-.112 94.831-.156 94.831-.201 94.786-.335 94.786-.491 94.719-.625 81.742-34.963 68.743-69.301 55.744-103.661H39.199C26.155-69.167 13.111-34.673 0 0" fill="#FFFFFF"/>
</g>
</g>
</svg>
